<svg width="440" height="163" viewBox="0 0 440 163" fill="none" xmlns="http://www.w3.org/2000/svg">
<path d="M191.36 1.03875H208.305C216.081 1.03875 220.746 4.75611 220.746 11.706V13.5377C220.746 17.9554 218.708 21.1879 215.169 22.9119L222.087 37.1349H212.917L206.643 24.3127H199.94V37.1349H191.36V1.03875ZM199.94 7.88084V17.4167H207.125C210.236 17.4167 212.22 16.1237 212.22 13.2144V12.0292C212.22 9.06609 210.236 7.88084 207.125 7.88084H199.94Z" fill="#F1F1F1" style="fill:#F1F1F1;fill:color(display-p3 0.9451 0.9451 0.9451);fill-opacity:1;"/>
<path d="M226.446 1.03875H252.83V8.15022H235.026V15.3156H250.417V22.1577H235.026V30.0234H253.098V37.1349H226.446V1.03875Z" fill="#F1F1F1" style="fill:#F1F1F1;fill:color(display-p3 0.9451 0.9451 0.9451);fill-opacity:1;"/>
<path d="M272.17 0.5H272.921C281.394 0.5 287.239 4.32511 287.239 11.3827V13.4299H278.82V11.3827C278.82 8.79672 276.728 7.18047 272.867 7.18047H272.224C268.416 7.18047 266.325 8.68897 266.325 10.6285V11.1672C266.325 13.5377 268.095 14.2919 275.334 16.0159C283.753 18.0632 287.829 20.8647 287.829 26.8986V27.4374C287.829 33.2559 283.002 37.6736 272.974 37.6736H272.224C262.249 37.6736 257.262 33.202 257.262 26.0905V24.2049H265.735V26.0905C265.735 29.5924 268.041 30.9931 272.331 30.9931H272.974C277.104 30.9931 279.302 29.7001 279.302 27.4913V27.0603C279.302 24.8514 277.157 23.72 269.703 22.0499C261.928 20.3259 257.852 17.5783 257.852 11.5982V10.7901C257.852 4.27124 263.268 0.5 272.17 0.5Z" fill="#F1F1F1" style="fill:#F1F1F1;fill:color(display-p3 0.9451 0.9451 0.9451);fill-opacity:1;"/>
<path d="M292.47 1.03875H301.05V23.1813C301.05 27.4913 302.659 30.0773 307.485 30.0773H308.343C313.169 30.0773 314.832 27.4913 314.832 23.1813V1.03875H323.358V23.1813C323.358 33.0404 317.567 37.6736 308.343 37.6736H307.485C298.262 37.6736 292.47 33.0404 292.47 23.1813V1.03875Z" fill="#F1F1F1" style="fill:#F1F1F1;fill:color(display-p3 0.9451 0.9451 0.9451);fill-opacity:1;"/>
<path d="M329.297 1.03875H337.877V29.9695H354.287V37.1349H329.297V1.03875Z" fill="#F1F1F1" style="fill:#F1F1F1;fill:color(display-p3 0.9451 0.9451 0.9451);fill-opacity:1;"/>
<path d="M351.183 1.03875H382.929V8.2041H371.346V37.1349H362.766V8.2041H351.183V1.03875Z" fill="#F1F1F1" style="fill:#F1F1F1;fill:color(display-p3 0.9451 0.9451 0.9451);fill-opacity:1;"/>
<path d="M399.791 0.5H400.542C409.015 0.5 414.86 4.32511 414.86 11.3827V13.4299H406.441V11.3827C406.441 8.79672 404.349 7.18047 400.488 7.18047H399.845C396.038 7.18047 393.946 8.68897 393.946 10.6285V11.1672C393.946 13.5377 395.716 14.2919 402.955 16.0159C411.374 18.0632 415.45 20.8647 415.45 26.8986V27.4374C415.45 33.2559 410.624 37.6736 400.596 37.6736H399.845C389.871 37.6736 384.884 33.202 384.884 26.0905V24.2049H393.356V26.0905C393.356 29.5924 395.662 30.9931 399.952 30.9931H400.596C404.725 30.9931 406.923 29.7001 406.923 27.4913V27.0603C406.923 24.8514 404.778 23.72 397.325 22.0499C389.549 20.3259 385.473 17.5783 385.473 11.5982V10.7901C385.473 4.27124 390.89 0.5 399.791 0.5Z" fill="#F1F1F1" style="fill:#F1F1F1;fill:color(display-p3 0.9451 0.9451 0.9451);fill-opacity:1;"/>
<path d="M188.41 50.424H197.473L205.195 63.4617H207.018L214.526 50.424H222.998L210.343 72.4049V86.5201H201.763V72.4049L188.41 50.424Z" fill="#F1F1F1" style="fill:#F1F1F1;fill:color(display-p3 0.9451 0.9451 0.9451);fill-opacity:1;"/>
<path d="M239.691 49.8852H240.656C250.148 49.8852 256.69 54.8956 256.69 64.4853V72.6204C256.69 82.1562 250.148 87.0588 240.656 87.0588H239.691C230.199 87.0588 223.55 82.1562 223.55 72.6204V64.4853C223.55 54.8956 230.146 49.8852 239.691 49.8852ZM239.691 57.3738C234.811 57.3738 232.183 60.0137 232.183 64.7547V72.1355C232.183 76.9842 234.811 79.5702 239.691 79.5702H240.549C245.375 79.5702 248.056 76.9842 248.056 72.1355V64.7547C248.056 60.0137 245.375 57.3738 240.549 57.3738H239.691Z" fill="#F1F1F1" style="fill:#F1F1F1;fill:color(display-p3 0.9451 0.9451 0.9451);fill-opacity:1;"/>
<path d="M261.887 50.424H270.467V72.5665C270.467 76.8765 272.076 79.4625 276.902 79.4625H277.76C282.586 79.4625 284.249 76.8765 284.249 72.5665V50.424H292.775V72.5665C292.775 82.4256 286.984 87.0588 277.76 87.0588H276.902C267.679 87.0588 261.887 82.4256 261.887 72.5665V50.424Z" fill="#F1F1F1" style="fill:#F1F1F1;fill:color(display-p3 0.9451 0.9451 0.9451);fill-opacity:1;"/>
<path d="M323.885 49.8852H324.85C334.449 49.8852 340.187 54.8417 340.187 63.6772V64.8085H331.553V63.6772C331.553 59.5288 329.248 57.4277 324.797 57.4277H323.831C319.488 57.4277 316.967 59.6366 316.967 64.3237V72.5126C316.967 77.4152 319.541 79.5164 323.885 79.5164H324.797C329.248 79.5164 331.714 77.4691 331.714 73.1053V72.351H340.348V73.1053C340.348 82.3717 334.503 87.0588 324.85 87.0588H323.885C314.393 87.0588 308.334 82.3178 308.334 72.5126V64.3237C308.334 54.9495 314.393 49.8852 323.885 49.8852Z" fill="#F1F1F1" style="fill:#F1F1F1;fill:color(display-p3 0.9451 0.9451 0.9451);fill-opacity:1;"/>
<path d="M353.699 50.424H366.623L377.937 86.5201H369.572L367.159 78.8699H352.734L350.321 86.5201H342.438L353.699 50.424ZM359.008 58.6129L354.932 71.8123H364.96L360.777 58.6129H359.008Z" fill="#F1F1F1" style="fill:#F1F1F1;fill:color(display-p3 0.9451 0.9451 0.9451);fill-opacity:1;"/>
<path d="M381.98 50.424H393.402L405.682 74.5599H406.808V50.424H414.53V86.5201H403.108L390.882 62.3842H389.755V86.5201H381.98V50.424Z" fill="#F1F1F1" style="fill:#F1F1F1;fill:color(display-p3 0.9451 0.9451 0.9451);fill-opacity:1;"/>
<path d="M191.36 99.8092H205.195L211.469 117.049H212.81L219.137 99.8092H232.222V135.905H223.749V109.561H222.462L216.134 126.854H206.911L200.583 109.561H199.35V135.905H191.36V99.8092Z" fill="#F1F1F1" style="fill:#F1F1F1;fill:color(display-p3 0.9451 0.9451 0.9451);fill-opacity:1;"/>
<path d="M238.648 99.8092H265.032V106.921H247.228V114.086H262.619V120.928H247.228V128.794H265.3V135.905H238.648V99.8092Z" fill="#F1F1F1" style="fill:#F1F1F1;fill:color(display-p3 0.9451 0.9451 0.9451);fill-opacity:1;"/>
<path d="M279.807 99.8092H292.731L304.046 135.905H295.68L293.267 128.255H278.842L276.429 135.905H268.546L279.807 99.8092ZM285.116 107.998L281.041 121.197H291.069L286.886 107.998H285.116Z" fill="#F1F1F1" style="fill:#F1F1F1;fill:color(display-p3 0.9451 0.9451 0.9451);fill-opacity:1;"/>
<path d="M321.134 99.2704H321.885C330.358 99.2704 336.203 103.096 336.203 110.153V112.2H327.784V110.153C327.784 107.567 325.692 105.951 321.831 105.951H321.188C317.381 105.951 315.289 107.459 315.289 109.399V109.938C315.289 112.308 317.059 113.062 324.298 114.786C332.717 116.834 336.793 119.635 336.793 125.669V126.208C336.793 132.026 331.967 136.444 321.939 136.444H321.188C311.214 136.444 306.227 131.972 306.227 124.861V122.975H314.699V124.861C314.699 128.363 317.005 129.764 321.295 129.764H321.939C326.068 129.764 328.266 128.471 328.266 126.262V125.831C328.266 123.622 326.121 122.49 318.668 120.82C310.892 119.096 306.816 116.349 306.816 110.369V109.561C306.816 103.042 312.233 99.2704 321.134 99.2704Z" fill="#F1F1F1" style="fill:#F1F1F1;fill:color(display-p3 0.9451 0.9451 0.9451);fill-opacity:1;"/>
<path d="M341.434 99.8092H350.014V121.952C350.014 126.262 351.623 128.848 356.449 128.848H357.307C362.134 128.848 363.796 126.262 363.796 121.952V99.8092H372.322V121.952C372.322 131.811 366.531 136.444 357.307 136.444H356.449C347.226 136.444 341.434 131.811 341.434 121.952V99.8092Z" fill="#F1F1F1" style="fill:#F1F1F1;fill:color(display-p3 0.9451 0.9451 0.9451);fill-opacity:1;"/>
<path d="M378.262 99.8092H395.207C402.983 99.8092 407.648 103.527 407.648 110.476V112.308C407.648 116.726 405.61 119.958 402.071 121.682L408.989 135.905H399.819L393.545 123.083H386.842V135.905H378.262V99.8092ZM386.842 106.651V116.187H394.027C397.138 116.187 399.122 114.894 399.122 111.985V110.8C399.122 107.837 397.138 106.651 394.027 106.651H386.842Z" fill="#F1F1F1" style="fill:#F1F1F1;fill:color(display-p3 0.9451 0.9451 0.9451);fill-opacity:1;"/>
<path d="M413.348 99.8092H439.732V106.921H421.928V114.086H437.319V120.928H421.928V128.794H440V135.905H413.348V99.8092Z" fill="#F1F1F1" style="fill:#F1F1F1;fill:color(display-p3 0.9451 0.9451 0.9451);fill-opacity:1;"/>
<path d="M165.846 0.5V135.622L138.33 162.5V27.3965H0L27.535 0.5H165.846Z" fill="#F83739" style="fill:#F83739;fill:color(display-p3 0.9725 0.2157 0.2235);fill-opacity:1;"/>
<path d="M124.169 41.2101V135.677L96.7093 162.5V68.0335H0L27.4602 41.2101H124.169Z" fill="#F83739" style="fill:#F83739;fill:color(display-p3 0.9725 0.2157 0.2235);fill-opacity:1;"/>
<path d="M82.9231 81.5V135.677L55.4629 162.5V108.323H0L27.4602 81.5H82.9231Z" fill="#F83739" style="fill:#F83739;fill:color(display-p3 0.9725 0.2157 0.2235);fill-opacity:1;"/>
</svg>
