<svg width="492" height="181" viewBox="0 0 492 181" fill="none" xmlns="http://www.w3.org/2000/svg">
<path d="M213.975 0.601934H232.923C241.618 0.601934 246.834 4.75528 246.834 12.5202V14.5668C246.834 19.5027 244.556 23.1143 240.598 25.0405L248.333 40.9315H238.08L231.064 26.6055H223.569V40.9315H213.975V0.601934ZM223.569 8.2465V18.9007H231.604C235.082 18.9007 237.3 17.4561 237.3 14.2057V12.8814C237.3 9.57076 235.082 8.2465 231.604 8.2465H223.569Z" fill="#070630" style="fill:#070630;fill:color(display-p3 0.0275 0.0235 0.1882);fill-opacity:1;"/>
<path d="M253.208 0.601934H282.71V8.54747H262.802V16.5532H280.011V24.1978H262.802V32.986H283.01V40.9315H253.208V0.601934Z" fill="#070630" style="fill:#070630;fill:color(display-p3 0.0275 0.0235 0.1882);fill-opacity:1;"/>
<path d="M304.336 0H305.175C314.649 0 321.185 4.27373 321.185 12.1591V14.4464H311.771V12.1591C311.771 9.26979 309.432 7.46398 305.115 7.46398H304.396C300.138 7.46398 297.8 9.1494 297.8 11.3164V11.9183C297.8 14.5668 299.778 15.4095 307.873 17.3357C317.287 19.6231 321.845 22.7531 321.845 29.4948V30.0967C321.845 36.5976 316.448 41.5335 305.235 41.5335H304.396C293.243 41.5335 287.666 36.5374 287.666 28.5919V26.4851H297.14V28.5919C297.14 32.5045 299.718 34.0695 304.515 34.0695H305.235C309.852 34.0695 312.311 32.6248 312.311 30.1569V29.6754C312.311 27.2074 309.912 25.9434 301.577 24.0774C292.883 22.1512 288.326 19.0813 288.326 12.3998V11.4969C288.326 4.21354 294.382 0 304.336 0Z" fill="#070630" style="fill:#070630;fill:color(display-p3 0.0275 0.0235 0.1882);fill-opacity:1;"/>
<path d="M327.035 0.601934H336.629V25.3414C336.629 30.1569 338.428 33.0462 343.824 33.0462H344.784C350.18 33.0462 352.039 30.1569 352.039 25.3414V0.601934H361.573V25.3414C361.573 36.3568 355.097 41.5335 344.784 41.5335H343.824C333.511 41.5335 327.035 36.3568 327.035 25.3414V0.601934Z" fill="#070630" style="fill:#070630;fill:color(display-p3 0.0275 0.0235 0.1882);fill-opacity:1;"/>
<path d="M368.214 0.601934H377.808V32.9258H396.157V40.9315H368.214V0.601934Z" fill="#070630" style="fill:#070630;fill:color(display-p3 0.0275 0.0235 0.1882);fill-opacity:1;"/>
<path d="M392.687 0.601934H428.184V8.60766H415.233V40.9315H405.639V8.60766H392.687V0.601934Z" fill="#070630" style="fill:#070630;fill:color(display-p3 0.0275 0.0235 0.1882);fill-opacity:1;"/>
<path d="M447.039 0H447.879C457.353 0 463.889 4.27373 463.889 12.1591V14.4464H454.475V12.1591C454.475 9.26979 452.136 7.46398 447.819 7.46398H447.099C442.842 7.46398 440.503 9.1494 440.503 11.3164V11.9183C440.503 14.5668 442.482 15.4095 450.577 17.3357C459.991 19.6231 464.548 22.7531 464.548 29.4948V30.0967C464.548 36.5976 459.152 41.5335 447.939 41.5335H447.099C435.946 41.5335 430.37 36.5374 430.37 28.5919V26.4851H439.844V28.5919C439.844 32.5045 442.422 34.0695 447.219 34.0695H447.939C452.556 34.0695 455.014 32.6248 455.014 30.1569V29.6754C455.014 27.2074 452.616 25.9434 444.281 24.0774C435.587 22.1512 431.029 19.0813 431.029 12.3998V11.4969C431.029 4.21354 437.086 0 447.039 0Z" fill="#070630" style="fill:#070630;fill:color(display-p3 0.0275 0.0235 0.1882);fill-opacity:1;"/>
<path d="M210.677 55.7793H220.811L229.445 70.3461H231.484L239.879 55.7793H249.353L235.202 80.3382V96.1089H225.608V80.3382L210.677 55.7793Z" fill="#070630" style="fill:#070630;fill:color(display-p3 0.0275 0.0235 0.1882);fill-opacity:1;"/>
<path d="M268.018 55.1773H269.097C279.711 55.1773 287.026 60.7753 287.026 71.4897V80.5789C287.026 91.2332 279.711 96.7108 269.097 96.7108H268.018C257.405 96.7108 249.969 91.2332 249.969 80.5789V71.4897C249.969 60.7753 257.345 55.1773 268.018 55.1773ZM268.018 63.5442C262.561 63.5442 259.623 66.4937 259.623 71.7907V80.0372C259.623 85.4546 262.561 88.3439 268.018 88.3439H268.977C274.374 88.3439 277.372 85.4546 277.372 80.0372V71.7907C277.372 66.4937 274.374 63.5442 268.977 63.5442H268.018Z" fill="#070630" style="fill:#070630;fill:color(display-p3 0.0275 0.0235 0.1882);fill-opacity:1;"/>
<path d="M292.837 55.7793H302.431V80.5188C302.431 85.3342 304.23 88.2235 309.627 88.2235H310.586C315.983 88.2235 317.842 85.3342 317.842 80.5188V55.7793H327.376V80.5188C327.376 91.5342 320.9 96.7108 310.586 96.7108H309.627C299.313 96.7108 292.837 91.5342 292.837 80.5188V55.7793Z" fill="#070630" style="fill:#070630;fill:color(display-p3 0.0275 0.0235 0.1882);fill-opacity:1;"/>
<path d="M362.162 55.1773H363.242C373.975 55.1773 380.391 60.7151 380.391 70.5868V71.8509H370.737V70.5868C370.737 65.9519 368.159 63.6044 363.182 63.6044H362.102C357.245 63.6044 354.427 66.0723 354.427 71.3092V80.4586C354.427 85.9362 357.305 88.2837 362.162 88.2837H363.182C368.159 88.2837 370.917 85.9964 370.917 81.1207V80.278H380.571V81.1207C380.571 91.474 374.035 96.7108 363.242 96.7108H362.162C351.549 96.7108 344.773 91.4138 344.773 80.4586V71.3092C344.773 60.8355 351.549 55.1773 362.162 55.1773Z" fill="#070630" style="fill:#070630;fill:color(display-p3 0.0275 0.0235 0.1882);fill-opacity:1;"/>
<path d="M395.5 55.7793H409.951L422.603 96.1089H413.249L410.55 87.5614H394.42L391.722 96.1089H382.908L395.5 55.7793ZM401.436 64.9287L396.879 79.676H408.092L403.415 64.9287H401.436Z" fill="#070630" style="fill:#070630;fill:color(display-p3 0.0275 0.0235 0.1882);fill-opacity:1;"/>
<path d="M427.123 55.7793H439.895L453.626 82.7459H454.886V55.7793H463.52V96.1089H450.748L437.077 69.1422H435.817V96.1089H427.123V55.7793Z" fill="#070630" style="fill:#070630;fill:color(display-p3 0.0275 0.0235 0.1882);fill-opacity:1;"/>
<path d="M213.975 110.957H229.445L236.461 130.218H237.96L245.035 110.957H259.666V151.286H250.192V121.852H248.753L241.678 141.174H231.364L224.288 121.852H222.909V151.286H213.975V110.957Z" fill="#070630" style="fill:#070630;fill:color(display-p3 0.0275 0.0235 0.1882);fill-opacity:1;"/>
<path d="M266.852 110.957H296.354V118.902H276.446V126.908H293.655V134.552H276.446V143.341H296.653V151.286H266.852V110.957Z" fill="#070630" style="fill:#070630;fill:color(display-p3 0.0275 0.0235 0.1882);fill-opacity:1;"/>
<path d="M312.876 110.957H327.327L339.979 151.286H330.624L327.926 142.739H311.796L309.098 151.286H300.283L312.876 110.957ZM318.812 120.106L314.255 134.853H325.468L320.791 120.106H318.812Z" fill="#070630" style="fill:#070630;fill:color(display-p3 0.0275 0.0235 0.1882);fill-opacity:1;"/>
<path d="M359.087 110.355H359.926C369.4 110.355 375.936 114.628 375.936 122.514V124.801H366.522V122.514C366.522 119.624 364.183 117.819 359.866 117.819H359.146C354.889 117.819 352.551 119.504 352.551 121.671V122.273C352.551 124.921 354.529 125.764 362.624 127.69C372.038 129.978 376.596 133.108 376.596 139.849V140.451C376.596 146.952 371.199 151.888 359.986 151.888H359.146C347.993 151.888 342.417 146.892 342.417 138.947V136.84H351.891V138.947C351.891 142.859 354.469 144.424 359.266 144.424H359.986C364.603 144.424 367.062 142.979 367.062 140.512V140.03C367.062 137.562 364.663 136.298 356.328 134.432C347.634 132.506 343.077 129.436 343.077 122.754V121.852C343.077 114.568 349.133 110.355 359.087 110.355Z" fill="#070630" style="fill:#070630;fill:color(display-p3 0.0275 0.0235 0.1882);fill-opacity:1;"/>
<path d="M381.786 110.957H391.38V135.696C391.38 140.512 393.179 143.401 398.575 143.401H399.535C404.931 143.401 406.79 140.512 406.79 135.696V110.957H416.324V135.696C416.324 146.711 409.848 151.888 399.535 151.888H398.575C388.262 151.888 381.786 146.711 381.786 135.696V110.957Z" fill="#070630" style="fill:#070630;fill:color(display-p3 0.0275 0.0235 0.1882);fill-opacity:1;"/>
<path d="M422.965 110.957H441.913C450.608 110.957 455.825 115.11 455.825 122.875V124.921C455.825 129.857 453.546 133.469 449.589 135.395L457.324 151.286H447.07L440.055 136.96H432.559V151.286H422.965V110.957ZM432.559 118.601V129.255H440.594C444.072 129.255 446.291 127.811 446.291 124.56V123.236C446.291 119.925 444.072 118.601 440.594 118.601H432.559Z" fill="#070630" style="fill:#070630;fill:color(display-p3 0.0275 0.0235 0.1882);fill-opacity:1;"/>
<path d="M462.199 110.957H491.7V118.902H471.793V126.908H489.002V134.552H471.793V143.341H492V151.286H462.199V110.957Z" fill="#070630" style="fill:#070630;fill:color(display-p3 0.0275 0.0235 0.1882);fill-opacity:1;"/>
<path d="M185.446 0V150.969L154.678 181V30.051H0L30.7892 0H185.446Z" fill="#F83739" style="fill:#F83739;fill:color(display-p3 0.9725 0.2157 0.2235);fill-opacity:1;"/>
<path d="M138.844 45.4848V151.031L108.139 181V75.4541H0L30.7055 45.4848H138.844Z" fill="#F83739" style="fill:#F83739;fill:color(display-p3 0.9725 0.2157 0.2235);fill-opacity:1;"/>
<path d="M92.7231 90.5V151.031L62.0176 181V120.469H0L30.7055 90.5H92.7231Z" fill="#F83739" style="fill:#F83739;fill:color(display-p3 0.9725 0.2157 0.2235);fill-opacity:1;"/>
</svg>
